<?xml version="1.0" encoding="utf-8"?>
<svg width="100%" height="100%" xmlns="http://www.w3.org/2000/svg" xmlns:xlink="http://www.w3.org/1999/xlink" viewBox="0 0 1024 1024" preserveAspectRatio="xMidYMid"><path d="M927.40143001 825.187979c60.06807401-68.122517 96.535637-157.488871 96.53563699-255.23200901 0-128.173195-62.729693-241.951541-159.094438-312.28235299 9.057283 13.88524199 25.469068 40.900525 41.76726501 92.215238 49.16474599 59.97393001 78.689177 136.644123 78.68917699 220.068138 0 84.554768-30.845519 166.130691-86.87664899 229.66982-8.527211 9.69684999-17.79017799 27.091008-13.41247501 54.955636 2.99930999 19.14810599 12.169157 40.202631 24.94001901 59.52060499a270.152836 270.152836 0 0 1-15.52662501 0.45230101c-35.92009401 0-67.292616-7.319709-86.026282-20.072151l-17.35732-11.829419-19.336394 8.131191c-12.243859 5.130857-24.677029 9.5454-37.31793 13.20576599-7.242961 11.469216-62.406329 40.125883-86.554308 52.200896 49.069579-1.28322601 95.894024-11.772115 138.812509-29.78946699 28.807093 19.620873 70.08521801 26.790156 107.77870201 26.790157 40.712237 0 77.255525-8.376785 89.32951399-18.506493-40.823777-24.317848-74.064856-89.404216-56.35040199-109.497856z m-38.69325401-313.186956c0-245.008156-199.314465-444.323645-444.323645-444.323644-245.008156 0-444.323645 199.314465-444.323644 444.323644 0 112.400976 41.93815799 215.180827 111.00621 293.51184699 20.393469 23.110347-17.847483 97.969289-64.80393499 125.92806101C60.166823 943.098435 102.180705 952.720583 148.986731 952.720583c43.35338999 0 90.837868-8.24477801 123.94694-30.80663301 52.786227 22.166859 110.721731 34.41071801 171.45086 34.41071801 245.008156-0.001023 444.323645-199.316511 444.323645-444.323645z m-637.50748199 38.635949c-21.33695801 0-38.636972-17.298991-38.636972-38.635949s17.300015-38.636972 38.636972-38.636972 38.636972 17.300015 38.636972 38.636972-17.300015 38.635949-38.636972 38.635949z m193.18383699 0c-21.33695801 0-38.635949-17.298991-38.63594899-38.635949s17.298991-38.636972 38.63594899-38.636972 38.636972 17.300015 38.636972 38.636972-17.300015 38.635949-38.636972 38.635949z m193.183838 0c-21.33695801 0-38.636972-17.298991-38.636972-38.635949s17.300015-38.636972 38.636972-38.636972c21.337981 0 38.637995 17.300015 38.637995 38.636972s-17.30103799 38.635949-38.637995 38.635949z" fill="#fff"></path></svg>