<?xml version="1.0" standalone="no"?><!DOCTYPE svg PUBLIC "-//W3C//DTD SVG 1.1//EN" "http://www.w3.org/Graphics/SVG/1.1/DTD/svg11.dtd"><svg t="1593415557738" class="icon" viewBox="0 0 1024 1024" version="1.1" xmlns="http://www.w3.org/2000/svg" p-id="23233" width="128" height="128" xmlns:xlink="http://www.w3.org/1999/xlink"><defs><style type="text/css"></style></defs><path d="M544 64C278.9 64 64 278.9 64 544s214.9 480 480 480 480-214.9 480-480S809.1 64 544 64zM128 544c0-56.2 11-110.7 32.7-161.9 20.9-49.5 51-94 89.2-132.3s82.7-68.2 132.3-89.2c51.2-21.7 105.7-32.7 161.9-32.7s110.7 11 161.9 32.7c38.8 16.4 74.5 38.4 106.6 65.6L226.3 812.5c-27.2-32-49.2-67.8-65.6-106.6C139 654.6 128 600.2 128 544z m710.2 294.1c-38.2 38.2-82.7 68.2-132.3 89.2C654.7 949 600.2 960 544 960s-110.7-11-161.9-32.7c-40.6-17.2-77.8-40.4-110.9-69.3l586.9-586.8c28.9 33.1 52.1 70.3 69.3 110.9C949 433.3 960 487.8 960 544s-11 110.7-32.7 161.9c-20.9 49.5-50.9 94-89.1 132.2z" p-id="23234" fill="#dd6161"></path></svg>