<?xml version="1.0" encoding="utf-8"?>
<svg width="100%" height="100%" xmlns="http://www.w3.org/2000/svg" xmlns:xlink="http://www.w3.org/1999/xlink" viewBox="0 0 1024 1024" preserveAspectRatio="xMidYMid"><path d="M410.84090562 33.3833825H102.83501375c-38.35767375 0-69.45307125 31.09443844-69.45307031 69.45307031v308.00589188c0 38.35767375 31.09443844 69.45307125 69.45307031 69.45307125H410.84090562c38.35767375 0 69.45307125-31.09443844 69.45307125-69.45307125V102.83549375c-0.00095906-38.35767375-31.0953975-69.45211125-69.45307125-69.45211125z m-6.040065 371.41793813H108.87315969V108.87459875h295.92768093v295.92672187z m-147.96336-78.51124969c38.35767375 0 69.45211125-31.09443844 69.45211125-69.45211125s-31.09443844-69.45307125-69.45211125-69.45307031-69.45307125 31.09443844-69.45307125 69.45307031c0.00095906 38.35767375 31.0953975 69.45211125 69.45307125 69.45211125zM921.16402719 33.3833825H613.15813438c-38.35767375 0-69.45307125 31.09443844-69.45307032 69.45307031v308.00589188c0 38.35767375 31.09443844 69.45307125 69.45307031 69.45307125h308.00589282c38.35767375 0 69.45307125-31.09443844 69.45307031-69.45307125V102.83549375c-0.00095906-38.35767375-31.0953975-69.45211125-69.45307031-69.45211125z m-6.03910594 371.41793813H619.19724031V108.87459875h295.92768094v295.92672187z m-147.96336094-78.51124969c38.35671375 0 69.45211125-31.09443844 69.45211125-69.45211125s-31.09443844-69.45307125-69.45211125-69.45307031-69.45307125 31.09443844-69.45307031 69.45307031c0.00095906 38.35767375 31.0953975 69.45211125 69.45307031 69.45211125zM410.84090562 543.70650313H102.83501375c-38.35767375 0-69.45307125 31.09251938-69.45307031 69.45307031v308.00589281c0 38.35671375 31.09443844 69.45307125 69.45307031 69.45307031H410.84090562c38.35767375 0 69.45307125-31.0953975 69.45307125-69.45307031V613.15861437c-0.00095906-38.35959188-31.0953975-69.45211125-69.45307125-69.45211124z m-6.040065 371.41889812H108.87315969V619.19772031h295.92768093v295.92768094z m-147.96336-78.51124969c38.35767375 0 69.45211125-31.09635656 69.45211125-69.45211125 0-38.35959188-31.09443844-69.45307125-69.45211125-69.45307125s-69.45307125 31.09251938-69.45307125 69.45307125c0.00095906 38.35575469 31.0953975 69.45211125 69.45307125 69.45211125z m609.97363782 154.00342594h54.35290875c38.35767375 0 69.45307125-31.0953975 69.45307031-69.45307125v-52.8428925H866.81111844v122.29596375z m54.35290875-446.91107437h-6.03910594v170.61168468h-95.11950938V543.70650313H613.15909438c-38.35767375 0-69.45307125 31.09251938-69.45307125 69.45307031v308.00589281c0 38.35671375 31.09443844 69.45307125 69.45307125 69.45307031h6.039105V744.13860969l78.51220875 0.377025v77.0021925h292.90668937V613.16053344c-0.00095906-38.36151094-31.0953975-69.45403031-69.45307031-69.45403031zM697.70944906 990.6175775h123.80597907V868.32161375H697.70944906v122.29596375z" fill="#fff"></path></svg>