<?xml version="1.0" encoding="utf-8"?>
<svg width="100%" height="100%" xmlns="http://www.w3.org/2000/svg" xmlns:xlink="http://www.w3.org/1999/xlink" viewBox="0 0 1024 1024" preserveAspectRatio="xMidYMid"><path d="M663.704632 701.606359c0-41.587164 28.942169-64.435545 52.049447-64.43554499-42.60535399-25.793456-53.066613-41.756009-53.06661299-52.401464 0-17.96209401-10.72220199-24.90522601 14.979156-41.75600901 45.27208999-29.64313401 71.231321-82.285075 71.23132099-140.870378v-80.30497699c0-91.895967-69.674872-160.60995399-160.51581-160.60995501-90.839915 0-162.183799 68.713988-162.18379901 160.60995499v80.30497701c0 58.49320601 27.533077 111.04202601 72.65781001 140.724045 25.75559401 16.922415 15.01804199 23.941272 15.018041 41.90234199 0 17.960047-29.77514 51.049676-193.47650301 121.00186501-71.602781 33.089629-105.080244 138.03889001-35.38490499 138.03889h511.418762v-75.840293h-66.36345301c-36.644595 0-66.36345401-24.978904-66.36345399-66.363453z m331.811128-28.44074899H891.233696V568.88252201c0-15.72002999-12.74016199-28.440749-28.441773-28.44075001s-28.43972599 12.720719-28.439726 28.44075001v104.283088h-104.285134c-15.70161001 0-28.43972599 12.739139-28.439726 28.44074899 0 15.70263401 12.738116 28.43972599 28.439726 28.439726h104.285134v104.284111c0 15.70263401 12.738116 28.440749 28.439726 28.440749s28.441772-12.738116 28.441773-28.440749V730.046085h104.282064c15.70263401 0 28.440749-12.737092 28.440749-28.439726 0-15.70161001-12.739139-28.440749-28.440749-28.44074901z m-707.189517 17.47806999c50.142004-27.90249001 90.84093799-46.511313 119.503744-64.620764-10.09082199-8.62851801-21.99699001-14.830777-21.99699-23.662932 0-16.868179-9.94346601-23.38664 13.86886899-39.198767a154.18563801 154.18563801 0 0 0 37.95749701-35.84846299s-45.697785-65.56629801-45.69778501-124.05848V327.614549c0-70.620407 22.737864-86.526679 22.737864-86.52667899-26.442232-22.682605-60.49274599-36.328393-97.67355399-36.32839301-84.119863 0-152.295592 69.917396-152.295591 156.203598v70.991868c0 54.918797 27.626197 103.208617 69.39858 131.076314 23.86759401 15.886829 13.905708 22.459524 13.905708 39.328727s-27.552519 47.919383-179.144077 113.597221C2.583336 747.026828-29.28344201 843.77326599 35.246247 843.77326599h184.329169s-38.55101401-87.895863 68.750827-153.12958599z" fill="#888"></path></svg>