<?xml version="1.0" encoding="utf-8"?>
<svg width="100%" height="100%" xmlns="http://www.w3.org/2000/svg" xmlns:xlink="http://www.w3.org/1999/xlink" viewBox="0 0 1024 1024" preserveAspectRatio="xMidYMid"><path d="M512.12996211 101.13966318c97.21238994 0 176.29307315 81.12499717 176.29307315 180.85927764v100.00139853c0 61.71345791-30.22490742 118.57290732-80.85697911 152.08598585-40.96272744 27.13010537-42.56813847 54.07043994-38.21149248 79.17601904 0.61158516 3.47704277 1.08916172 6.19050322 1.08916172 8.71329199 0 47.1919043 46.19807754 96.37056035 276.10380176 195.7235001 37.5243583 17.69280469 63.29908301 54.22333623 71.41877754 80.78053008 4.4124082 14.48288086 2.6370123 21.93432891 2.33121973 22.69791122-0.03867364 0.03867364-2.59833867 1.68096006-10.26024346 1.68096007H113.96631641c-6.8209752 0-9.59109697-1.29782021-9.87800186-1.29782022h-0.0188877c-0.72580781-1.37606661-2.38788105-8.82661552 1.96786583-23.08105107 8.11969453-26.55719385 33.89441924-63.08862627 71.39989071-80.78053008 229.93360488-99.35293886 276.13258242-148.5315958 276.13258244-195.7235001 0-2.52278965 0.47757656-5.2353501 1.08916171-8.71329199 4.35574688-25.14335273 2.75123497-52.12146182-38.19350478-79.32891533-50.47827539-33.55085215-80.60964698-90.33385342-80.60964698-151.93308956V281.99983994c0.00089912-99.73517959 79.08158232-180.86017676 176.27418633-180.86017676m0-39.12977021c-118.85981308 0-215.21238574 98.47333477-215.21238662 219.98904785v100.00139853c0 77.34216182 39.05242207 145.35944648 98.09109492 184.56656397 33.70374844 22.39121865 19.64088369 31.67832217 19.64088281 55.40783379 0 23.76728613-38.93820029 67.52082129-253.12887861 159.99522363C67.80421513 825.7234959 22.77084746 961.98920703 113.96541729 961.98920703h796.07006454c91.19456982 0 46.14231533-136.26571201-47.55525732-180.01924628C648.3012374 689.49735664 609.36213886 645.74292237 609.36213886 621.97563623c0-23.73041074-14.04217969-32.939267 19.60310831-55.17938847 59.21045508-39.20621836 98.39688662-107.33862481 98.3968875-184.79590841V281.99983994c0-121.51571221-96.35257266-219.98994697-215.23217256-219.98994697z" fill="#7a7e83"></path></svg>