<?xml version="1.0" encoding="utf-8"?>
<svg width="100%" height="100%" xmlns="http://www.w3.org/2000/svg" xmlns:xlink="http://www.w3.org/1999/xlink" viewBox="0 0 1024 1024" preserveAspectRatio="xMidYMid"><path d="M553.650097 609.185436h69.419046a6.942109 6.942109 0 0 0 0-13.884218h-69.419046a6.942109 6.942109 0 1 0 0 13.884218z m353.474521-421.373956l32.720215-32.720216a9.258874 9.258874 0 0 0 0-13.093203c-3.611248-3.615341-9.472745-3.615341-13.088086 0l-32.724309 32.725333c-3.611248 3.615341-3.611248 9.476839 0 13.088086 3.614317 3.616364 9.475815 3.616364 13.09218 0z m109.315707 717.558679h-64.790631a6.944156 6.944156 0 0 0-6.94211 6.941086 6.944156 6.944156 0 0 0 6.94211 6.943133h64.790631a6.943133 6.943133 0 0 0 0-13.884219zM838.26532 160.279427a9.256828 9.256828 0 0 0 9.256828-9.255805v-37.023218a9.256828 9.256828 0 0 0-18.512632 0v37.023218a9.256828 9.256828 0 0 0 9.255804 9.255805z m143.465483 74.046436a9.256828 9.256828 0 0 0-9.255805-9.255804h-37.024242a9.256828 9.256828 0 0 0 0 18.511609h37.024242a9.256828 9.256828 0 0 0 9.255805-9.255805z m-240.649896-69.418023c-84.971253 0-155.685805 62.209854-168.987762 143.477763l-390.988926-0.013303c-10.222829 0-18.510586 8.28878-18.510585 18.511609v46.279023h-46.280047c-10.222829 0-18.510586 8.28878-18.510585 18.511609v185.116091H7.558651a6.936993 6.936993 0 0 0-6.942109 6.941086 6.941086 6.941086 0 0 0 6.942109 6.941086h90.244351v310.069964c0 10.222829 8.28878 18.511609 18.510585 18.51161h775.171842a6.944156 6.944156 0 0 0 6.942109-6.943133 6.944156 6.944156 0 0 0-6.942109-6.941086h-80.987523v-50.90539h46.279023c10.222829 0 18.511609-8.290827 18.511609-18.511609L875.257839 442.409039c23.189142-29.218462 37.053917-66.155722 37.053918-106.270349 0-94.418416-76.81141-171.230849-171.23085-171.23085zM176.476829 326.883909a4.630461 4.630461 0 0 1 4.62739-4.627391h384.115378s3.538593 0.00921 5.183046 0.00921a174.330444 174.330444 0 0 0-0.555655 13.875009 171.137729 171.137729 0 0 0 4.022616 36.995589s-99.268888 0.026606-397.393799 0.026606v-46.279023z m620.137882 573.859883a4.632507 4.632507 0 0 1-4.626367 4.626367H116.314611a4.632507 4.632507 0 0 1-4.627391-4.626367V391.674541a4.630461 4.630461 0 0 1 4.627391-4.627391l461.266525 0.021489c7.249101 23.230074 19.325138 44.349067 35.048237 62.183248 7.854898 8.911974-6.878664 37.754882-24.973787 48.529273 5.354961 4.492314 21.543665 8.202822 39.58967 8.202823 16.708544 0 35.003212-3.181459 47.76691-11.872399 20.336164 8.541537 42.662659 13.260002 66.069764 13.260002 19.446911 0 38.147832-3.258207 55.582923-9.259898l-0.050142 402.632104z m64.790632-64.790632a4.632507 4.632507 0 0 1-4.62739 4.626367h-46.279023c0-257.245875-0.050142-347.892385-0.050142-347.892385 19.085684-8.491395 36.34579-20.374026 51.001581-34.876322l-0.045026 378.14234zM741.080907 493.488391c-21.034059 0-41.453111-4.099365-60.693314-12.175297l-6.959505-2.923586-6.232958 4.248767c-8.831132 6.014994-23.391756 9.463536-39.951921 9.463536-4.635577 0-8.930393-0.271176-12.753465-0.700965 7.046486-9.292644 12.224416-20.030196 13.729699-29.620621 1.744737-11.107989-1.853208-17.937534-5.178952-21.711488-25.349341-28.752858-39.310308-65.662489-39.310308-103.929024 0-86.764086 70.585615-157.348678 157.349701-157.348677 86.762039 0 157.347654 70.584592 157.347654 157.348677 0.001023 86.764086-70.584592 157.348678-157.346631 157.348678zM443.358155 731.364103c-64.108087-27.597545-75.768661-40.640606-75.768661-47.725978 0-7.077186-4.193509-9.8176 5.870708-16.458857 17.720593-11.692297 29.452799-32.007995 29.452799-55.116295v-29.822212c0-36.237319-28.842909-65.614393-64.420195-65.614394s-64.420195 29.377074-64.420195 65.614394v29.822212c0 23.068392 11.68718 43.35646 29.357631 55.05285 10.086729 6.67912 5.879917 9.445116 5.879918 16.522302 0 7.085372-11.655458 20.128433-75.767638 47.725978-17.444301 8.106632-29.303396 26.754341-29.177529 39.797401 0.081864 7.92653 4.627391 13.884218 14.950503 13.884219h238.273778c10.634198 0 15.07637-5.586229 14.887059-13.884219-0.297782-13.007245-11.989055-31.834033-29.118178-39.797401z m14.232143 39.797401H219.316519c-0.443092 0-0.795109-0.025583-1.080611-0.054235v-0.090051c-0.067538-6.959505 8.06263-20.889773 20.983917-26.989701 70.213131-30.225395 83.962274-45.041846 83.962274-60.389392 0-0.561795 0.12689-1.293459 0.289595-2.222621 1.436722-8.230452 0.921999-17.066701-12.392238-25.88453-14.488992-9.589402-23.139-25.840528-23.139-43.469024v-29.822213c0-28.526707 22.678512-51.731198 50.554396-51.731198s50.54928 23.204491 50.54928 51.731198v29.822213c0 17.662265-8.676613 33.932834-23.216771 43.522236-13.314237 8.7902-13.81975 17.60803-12.392238 25.830295 0.162706 0.929162 0.289596 1.660826 0.289596 2.222621 0 15.347546 13.748119 30.163997 83.953063 60.389392 12.338003 5.829775 20.509103 19.730367 20.920472 27.097148-0.285502 0.019443-0.620124 0.037862-1.007956 0.037862z m239.525282-115.698068H553.650097a6.943133 6.943133 0 0 0 0 13.884218h143.465483a6.943133 6.943133 0 0 0 0-13.884218z m0 60.163241H553.650097a6.941086 6.941086 0 0 0-6.941086 6.941086 6.944156 6.944156 0 0 0 6.941086 6.943133h143.465483a6.944156 6.944156 0 0 0 6.941086-6.943133 6.941086 6.941086 0 0 0-6.941086-6.941086z m84.909855-439.048501c-16.181541 0-30.748305 6.891967-40.946574 17.891486-10.19827-11.000542-24.762987-17.891486-40.945551-17.891486-30.840402 0-55.836703 25.001417-55.836703 55.836703v48.394196c0 8.221242 6.665817 14.887059 14.891152 14.887059 8.221242 0 14.887059-6.665817 14.887058-14.887059v-48.394196c0-14.367219 11.69332-26.053376 26.059516-26.053376 14.367219 0 26.054399 11.68718 26.054399 26.053376v48.394196c0 8.221242 6.66684 14.887059 14.893198 14.887059 8.219195 0 14.886035-6.665817 14.886036-14.887059v-48.394196c0-14.367219 11.692297-26.053376 26.058492-26.053376 14.368242 0 26.060539 11.68718 26.060539 26.053376v48.394196c0 8.221242 6.66684 14.887059 14.887059 14.887059 8.225335 0 14.892175-6.665817 14.892175-14.887059v-48.394196c-0.002047-30.835286-25.003464-55.836703-55.840796-55.836703z" fill="#777"></path></svg>