<?xml version="1.0" encoding="utf-8"?>
<svg width="100%" height="100%" xmlns="http://www.w3.org/2000/svg" xmlns:xlink="http://www.w3.org/1999/xlink" viewBox="0 0 1024 1024" preserveAspectRatio="xMidYMid"><path d="M548.43777812 289.36185203c0-50.65397589-41.22163306-91.87560895-91.87560895-91.87560896s-91.87560895 41.22163306-91.87560895 91.87560896c0 50.65397589 41.22163306 91.87560895 91.87560895 91.87560895S548.43777812 340.01458516 548.43777812 289.36185203L548.43777812 289.36185203zM425.93655194 289.36185203c0-16.87513771 13.75047953-30.62561724 30.62561723-30.62561724 16.87513771 0 30.62561724 13.75047953 30.62561724 30.62561724 0 16.87513771-13.75047953 30.62561724-30.62561724 30.62561724C439.68703147 319.98622651 425.93655194 306.23698852 425.93655194 289.36185203L425.93655194 289.36185203zM318.74813375 442.48745392c-42.20150428 0-76.56280095 34.36129667-76.56280094 76.56280094 0 42.2313098 34.36129667 76.56280095 76.56280094 76.56280094s76.56280095-34.33149114 76.56280095-76.56280094C395.3109347 476.84874937 360.94963803 442.48745392 318.74813375 442.48745392L318.74813375 442.48745392zM318.74813375 534.36306287c-8.45247162 0-15.31280801-6.85909485-15.312808-15.31280801s6.85909485-15.31280801 15.312808-15.31280801c8.45247162 0 15.31280801 6.85909485 15.31280802 15.31280801S327.20060538 534.36306287 318.74813375 534.36306287L318.74813375 534.36306287zM579.06215261 718.11428078c0-33.82727293 27.42271878-61.24999171 61.24999172-61.24999171 33.82727293 0 61.24999171 27.42271878 61.24999171 61.24999171s-27.42271878 61.24999171-61.24999171 61.24999172C606.48487261 779.36427372 579.06215261 751.94155493 579.06215261 718.11428078L579.06215261 718.11428078zM877.5054386 270.86477357c38.03612228-58.06572249 61.49589129-108.32228564 61.46484301-142.56063314 0-21.98934262-8.91073817-35.34240942-16.38458133-42.66101237-36.44398706-35.77086923-105.28953078-3.0625616-153.86081509 24.56134785-14.67073846 8.36056951-19.81474892 27.07249925-11.45417939 41.77180172 8.36056951 14.700544 27.10354634 19.81599167 41.77304326 11.4541794 47.28466091-26.94955008 70.10111883-31.66758381 78.95224471-32.24879953-1.44062085 39.59845076-91.23353941 193.73497093-316.02258739 414.87900005-216.6420882 213.15106558-381.52862166 310.72333793-423.23956956 311.3976973 0.9190174-10.87172093 8.3916178-42.53806319 56.01407916-113.58800494 1.25433356-1.80822804 2.29630013-3.79777479 3.09236713-5.88046639l2.20439925-5.66561511c0.24465681-0.61226401 0.27694663-1.28662338 0.49055637-1.92869415 8.42142333-9.79994882 10.35135901-24.0111792 3.2463646-35.64792004-34.97480223-57.3913631-53.47188068-123.45004912-53.47188068-191.00896826 0-202.64695065 164.85548639-367.50243703 367.50243703-367.50243703 56.74929357 0 111.10790061 12.55575825 161.60912058 37.36300446 15.2519542 7.44155333 33.53418138 1.13262592 40.97697624-14.02618463 7.44155333-15.1600533 1.19347973-33.50313309-13.99513755-40.97697626-58.98473987-28.94033837-122.44037237-43.6098353-188.58971772-43.60983529-236.42703158 0-428.75242875 192.32663993-428.75242876 428.75242875 0 72.79607323 18.65107471 144.03105951 53.65568368 207.33269577-0.183803 0.5514102-0.61226401 1.01091828-0.76626147 1.56232848-65.1707169 97.9386368-80.45247783 158.30066062-48.17387157 189.96824321 10.53516201 10.32031195 24.53029956 14.91415374 41.22163306 14.91415375 37.63746801 0 88.87390117-23.85718173 143.63240525-58.27933223 70.83633201 47.80626557 153.00389425 73.25558132 239.18283981 73.25558132 236.42703158 0 428.75242875-192.32663993 428.75242874-428.75242875C946.56458964 420.34535537 922.55465321 340.32133855 877.5054386 270.86477357L877.5054386 270.86477357zM517.81216089 871.24112421c-65.35327835 0-127.98179555-17.11855297-183.5984632-49.33754577 122.77568975-88.2914439 247.3298008-209.17072933 270.6951846-232.19955424 85.32202474-83.94350046 170.88870749-179.00462019 234.12948872-264.11179486 30.19715621 54.29899598 46.27498416 115.08947961 46.27498416 178.14645784C885.31459792 706.38439628 720.45911154 871.24112421 517.81216089 871.24112421L517.81216089 871.24112421z" fill="#7a7e83"></path></svg>