<?xml version="1.0" standalone="no"?><!DOCTYPE svg PUBLIC "-//W3C//DTD SVG 1.1//EN" "http://www.w3.org/Graphics/SVG/1.1/DTD/svg11.dtd"><svg t="1585720793794" class="icon" viewBox="0 0 1024 1024" version="1.1" xmlns="http://www.w3.org/2000/svg" p-id="2245" xmlns:xlink="http://www.w3.org/1999/xlink" width="64" height="64"><defs><style type="text/css"></style></defs><path d="M512.739556 0.398222c-19.512889 0-38.684444 1.137778-57.742223 3.356445-45.511111 5.12-90.168889 16.440889-132.664889 33.564444 0 0 345.258667 340.48 354.417778 352.881778V27.363556a364.088889 364.088889 0 0 0-31.573333-9.386667 508.928 508.928 0 0 0-132.437333-17.635556v0.056889z" fill="#FA5452" p-id="2246"></path><path d="M873.187556 148.252444a594.488889 594.488889 0 0 0-43.235556-38.4A516.152889 516.152889 0 0 0 712.248889 40.106667s2.56 483.726222 0 498.972444l257.706667-256.796444a522.24 522.24 0 0 0-96.768-134.030223z" fill="#6467F0" p-id="2247"></path><path d="M986.453333 323.128889s-341.617778 343.950222-354.190222 353.109333h364.259556c3.640889-10.24 6.769778-20.821333 9.500444-31.402666a502.727111 502.727111 0 0 0 14.222222-189.155556 512.455111 512.455111 0 0 0-33.792-132.551111z" fill="#5283F0" p-id="2248"></path><path d="M479.800889 714.296889l257.706667 256.796444c9.898667-4.778667 19.569778-10.012444 29.013333-15.587555a501.077333 501.077333 0 0 0 105.984-80.896 501.418667 501.418667 0 0 0 108.487111-160.312889c-0.170667 0-485.660444 2.56-501.191111 0z" fill="#00B1FE" p-id="2249"></path><path d="M347.591111 633.742222v362.951111c10.296889 3.584 20.935111 6.599111 31.516445 9.329778a507.050667 507.050667 0 0 0 190.008888 14.222222 506.88 506.88 0 0 0 132.664889-33.564444S356.864 646.257778 347.591111 633.799111z" fill="#66D020" p-id="2250"></path><path d="M311.352889 482.247111l-257.706667 256.796445c4.721778 9.728 10.126222 19.512889 15.701334 28.899555a508.700444 508.700444 0 0 0 242.005333 213.788445c0-0.341333-2.446222-484.124444 0-499.484445z" fill="#9AD122" p-id="2251"></path><path d="M18.033778 379.733333A500.565333 500.565333 0 0 0 3.754667 568.888889c5.233778 46.421333 16.668444 90.624 33.678222 132.209778 0 0 341.219556-343.950222 354.190222-352.881778h-364.088889c-3.697778 10.353778-6.826667 20.821333-9.557333 31.516444z" fill="#FFC817" p-id="2252"></path><path d="M255.032889 70.428444a501.475556 501.475556 0 0 0-144.440889 124.017778 501.191111 501.191111 0 0 0-69.973333 117.532445s485.489778-2.503111 501.134222 0L284.046222 55.182222a560.412444 560.412444 0 0 0-29.013333 15.246222z" fill="#FF7612" p-id="2253"></path></svg>