<?xml version="1.0" encoding="utf-8"?>
<svg width="100%" height="100%" xmlns="http://www.w3.org/2000/svg" xmlns:xlink="http://www.w3.org/1999/xlink" viewBox="0 0 1024 1024" preserveAspectRatio="xMidYMid"><path d="M512.12996211 62.01079297c-118.85981308 0-215.21238574 98.47333477-215.21238662 219.98904697v100.00139941c0 77.34216182 39.05242207 145.3603456 98.09109492 184.56656397 33.70374844 22.39211777 19.64088369 31.67832217 19.64088282 55.40783291 0 23.76818526-38.93820029 67.52082129-253.12887862 159.99522364C67.80601338 825.7234959 22.77264658 961.99010703 113.96631641 961.99010703h796.07006455c91.19456982 0 46.14141621-136.26661113-47.55525733-180.01924716-214.18078535-92.47350323-253.11988477-136.22703838-253.11988477-159.99522364 0-23.73041074-14.04307881-32.939267 19.60310919-55.17938847 59.21045508-39.20621836 98.39688662-107.33862481 98.39688662-184.79590841V281.99983994c0.00089912-121.51571221-96.35167354-219.98904785-215.23127256-219.98904697z" fill="#03b703"></path></svg>