<?xml version="1.0" standalone="no"?><!DOCTYPE svg PUBLIC "-//W3C//DTD SVG 1.1//EN" "http://www.w3.org/Graphics/SVG/1.1/DTD/svg11.dtd"><svg t="1585885143231" class="icon" viewBox="0 0 1024 1024" version="1.1" xmlns="http://www.w3.org/2000/svg" p-id="1224" width="48" height="48" xmlns:xlink="http://www.w3.org/1999/xlink"><defs><style type="text/css"></style></defs><path d="M866.26823487 563.15810498V168.79252256c0-8.97631084-4.87894482-17.36051748-12.78946758-21.57630469A725.44698633 725.44698633 0 0 0 511.50263222 62.00047373 725.3522499 725.3522499 0 0 0 169.55018018 147.21621787 24.41840801 24.41840801 0 0 0 156.73702872 168.79252256V563.15810498c0 13.07367773 10.58683623 23.66051396 23.66051396 23.66051397h662.21017822a23.66051396 23.66051396 0 0 0 23.66051397-23.66051397" fill="#FFF3E7" p-id="1225"></path><path d="M156.73702872 367.52662901v569.55759433c0 13.07367773 10.58683623 23.68419785 23.66051396 23.68419873h662.21017822a23.66051396 23.66051396 0 0 0 23.66051397-23.68419873V367.52662901a725.37593378 725.37593378 0 0 1-354.76560264 92.202583A725.37593378 725.37593378 0 0 1 156.73702872 367.52662901" fill="#E14949" p-id="1226"></path><path d="M392.1579582 598.6370331a118.23151641 118.23151641 0 1 0 236.53408535 0 118.25520117 118.25520117 0 0 0-236.51040146 0" fill="#FFCF33" p-id="1227"></path><path d="M559.72365927 601.55018984v-19.23156914h-30.62366805l27.44998505-27.75787998-18.04735898-16.53157002-28.13682657 25.67367071-28.18419609-25.67367071-18.0236751 16.48420137 27.47366982 27.78156475h-30.48156298v19.18420049h35.19471884v12.81315058h-35.19471884v25.64998682h35.19471884v19.27893691h21.07893604v-25.64998594h42.25260938v-19.23156914H517.44736513v-12.7894667z" fill="#E59633" p-id="1228"></path></svg>