<?xml version="1.0" encoding="utf-8"?>
<svg width="100%" height="100%" xmlns="http://www.w3.org/2000/svg" xmlns:xlink="http://www.w3.org/1999/xlink" viewBox="0 0 1024 1024" preserveAspectRatio="xMidYMid"><path d="M927.403476 825.170582c60.065004-68.107167 96.53359-157.492964 96.533591-255.215635 0-128.173195-62.71946-241.96996-159.092392-312.301796 9.060353 13.885242 25.471115 40.900525 41.773406 92.216262 49.164746 59.992349 78.689177 136.661519 78.689177 220.085534 0 84.555791-30.850635 166.131715-86.883813 229.670843-8.526187 9.695826-17.790178 27.092032-13.404288 54.93517 2.995217 19.167548 12.163017 40.22412 24.934902 59.542094-4.92108 0.265036-10.109242 0.452301-15.521508 0.452301-35.922141 0-67.297732-7.319709-86.039585-20.074197L791.041786 882.635365l-19.340487 8.148587c-12.237719 5.131881-24.667819 9.546424-37.312814 13.205767-7.241938 11.471262-62.407352 40.108486-86.552262 52.181453 49.068556-1.282203 95.891977-11.771091 138.809439-29.767977 28.807093 19.61985 70.089311 26.78811 107.786889 26.788109 40.703027 0 77.245292-8.377808 89.323374-18.525935-40.819684-24.299429-74.066903-89.385796-56.352449-109.494787z m-38.69223-313.170582c0-245.027599-199.313441-444.323645-444.327738-444.323645-245.002017 0-444.321598 199.296045-444.321598 444.323645 0 112.401999 41.939181 215.179804 111.007233 293.510824 20.394493 23.090904-17.848507 97.950869-64.804958 125.909641 13.900591 11.658528 55.920614 21.279652 102.721523 21.279652 43.35646 0 90.841961-8.224312 123.95001-30.788213 52.786227 22.148439 110.718661 34.411741 171.446767 34.411741 245.014296 0 444.328761-199.333908 444.328761-444.323645zM444.383508 917.685649c-54.213739 0-106.872053-10.562567-156.487054-31.391964l-19.35686-8.150634-17.334807 11.811c-22.50762 15.316847-59.749826 24.110117-102.219079 24.110117-10.183943 0-19.694551-0.491187-28.294417-1.284249 17.147542-23.619954 29.653367-50.370201 33.407878-74.367754 4.680603-29.846772-5.054109-48.257074-14.051018-58.482973-65.35038-74.103742-101.347223-169.262008-101.347222-267.929192 0-223.709061 181.995007-405.686672 405.682579-405.686672 223.693712 0 405.688719 181.977611 405.688719 405.686672 0 223.669152-181.996031 405.685649-405.688719 405.685649z m-193.179744-444.322621c-21.341051 0-38.639019 17.281595-38.639019 38.636972 0 21.318538 17.297968 38.636972 38.639019 38.636972 21.335934 0 38.633902-17.318434 38.633902-38.636972 0-21.3564-17.297968-38.636972-38.633902-38.636972z m193.179744 0c-21.330818 0-38.639019 17.281595-38.639019 38.636972 0 21.318538 17.308201 38.636972 38.639019 38.636972 21.341051 0 38.639019-17.318434 38.639019-38.636972 0-21.3564-17.297968-38.636972-38.639019-38.636972z m193.184861 0c-21.330818 0-38.628786 17.281595-38.628786 38.636972 0 21.318538 17.297968 38.636972 38.628786 38.636972 21.340027 0 38.639019-17.318434 38.639018-38.636972 0-21.3564-17.298991-38.636972-38.639018-38.636972z" fill="#7a7e83"></path></svg>