<?xml version="1.0" encoding="utf-8"?>
<svg width="100%" height="100%" xmlns="http://www.w3.org/2000/svg" xmlns:xlink="http://www.w3.org/1999/xlink" viewBox="0 0 1024 1024" preserveAspectRatio="xMidYMid"><path d="M907.49403037 72.92499365c-24.24998672-24.29998682-88.34995107-4.37499756-173.49990381 47.77497334A446.59975166 446.59975166 0 0 0 512.46924981 62C264.2693873 62 62.96949951 263.4748877 62.96949951 511.99975039a447.49975166 447.49975166 0 0 0 58.39996729 221.09987636C68.26949668 819.4495792 47.7945081 884.49954278 72.26949394 908.99952911c51.27497138 51.29997188 279.77484463-94.24994766 510.42471681-325.12481895C813.31908242 352.99983799 958.76900176 124.24996513 907.51902998 72.92499365zM298.39436826 665.37466455a87.54995127 87.54995127 0 0 1-87.49995117-87.59995137 87.54995127 87.54995127 0 0 1 87.49995117-87.57495088c48.29997305 0 87.49995117 39.22497862 87.49995205 87.57495088a87.54995127 87.54995127 0 0 1-87.49995205 87.59995137z m153.09991494-262.749854a109.42493906 109.42493906 0 0 1-109.34993847-109.47493917 109.42493906 109.42493906 0 0 1 109.34993847-109.47493916 109.42493906 109.42493906 0 0 1 109.37493985 109.49993966 109.42493906 109.42493906 0 0 1-109.37493985 109.44993867z m443.69975391-126.67492969c-56.62496865 96.67494668-157.9249125 223.44987568-285.27484131 350.94980566-117.49993506 117.62493487-234.42486943 212.99988164-327.64981817 271.59984844A447.12475137 447.12475137 0 0 0 512.49424942 961.9994999C760.74411201 961.9994999 962.0190002 760.49961172 962.0190002 511.99975039c0-86.57495156-24.49998633-167.42490732-66.82496309-236.04986953z m-224.9498751 542.69969854a65.64996387 65.64996387 0 0 1-65.62496337-65.67496348 65.64996387 65.64996387 0 1 1 131.24992675 0 65.64996387 65.64996387 0 0 1-65.62496338 65.67496348z" fill="#03b703"></path></svg>