<?xml version="1.0" encoding="utf-8"?>
<svg width="100%" height="100%" xmlns="http://www.w3.org/2000/svg" xmlns:xlink="http://www.w3.org/1999/xlink" viewBox="0 0 1024 1024" preserveAspectRatio="xMidYMid"><path d="M767.246847 379.14211h227.75726c15.754822 0 28.469402-12.752442 28.469402-28.469402s-12.715603-28.469402-28.469402-28.469402h-227.75726c-15.715937 0-28.468378 12.752442-28.468379 28.469402s12.752442 28.469402 28.468379 28.469402z m227.758284 94.898347H824.186673c-15.715937 0-28.469402 12.752442-28.469401 28.469401 0 15.717983 12.753465 28.470425 28.469401 28.470425H995.005131c15.754822 0 28.469402-12.752442 28.469401-28.470425 0-15.71696-12.715603-28.469402-28.469401-28.469401z m0 151.838173H862.146217c-15.715937 0-28.469402 12.751419-28.469402 28.469402 0 15.715937 12.753465 28.469402 28.469402 28.469402H995.005131c15.754822 0 28.469402-12.753465 28.469401-28.469402 0-15.717983-12.715603-28.469402-28.469401-28.469402zM774.921643 773.916245C567.145459 684.189687 529.370111 641.74397 529.370111 618.705254s-13.640672-31.954783 19.018146-53.546544c57.419757-38.034245 95.454002-104.111173 95.454002-179.270966v-97.011474c0-117.863385-93.490278-213.410508-208.776977-213.410508-115.324562 0-208.786187 95.547123-208.786187 213.410508v97.011474c0 75.02881 37.857213 141.013641 95.130637 179.065282 32.695656 21.723767 19.053961 30.713512 19.053962 53.751205s-37.774325 65.48341-245.559719 155.21099c-90.895173 42.446741-134.582161 174.619016-46.115294 174.619017h772.248256c88.485287 0 44.779879-132.172275-46.115294-174.617993z m56.08639 135.045719c-0.037862 0.019443-2.520403 1.612731-9.971096 1.61273H48.788681c-6.616698 0-9.304923-1.25969-9.563819-1.25969h-0.036839c-0.704035-1.335415-2.317789-8.563026 1.908466-22.390963 7.877411-25.744337 32.880875-61.183478 69.26555-78.365811C333.420277 712.195531 378.238019 664.467507 378.238019 618.705254c0-2.447748 0.445138-5.097088 1.037632-8.470929 4.226255-24.373107 2.706645-50.562583-37.032428-76.9383-48.969295-32.547277-78.217433-87.651292-78.217432-147.408281v-97.011474c0-96.751554 76.734662-175.451988 171.040514-175.451988 94.26799 0 171.002652 78.69941 171.002652 175.451988v97.011474c0 59.885925-29.321816 115.046223-78.43949 147.555637-39.739073 26.302039-41.295522 52.453652-37.07029 76.789921 0.593518 3.373841 1.037632 6.024204 1.037632 8.470929 0 45.762253 44.816718 93.489254 267.866771 189.851952 36.402071 17.182334 61.387116 52.621475 69.282946 78.365812 4.299933 14.051017 2.557242 21.280676 2.261507 22.039969z" fill="#7a7e83"></path></svg>