<?xml version="1.0" encoding="utf-8"?>
<svg width="100%" height="100%" xmlns="http://www.w3.org/2000/svg" xmlns:xlink="http://www.w3.org/1999/xlink" viewBox="0 0 1024 1024" preserveAspectRatio="xMidYMid"><path d="M511.99955 62.27611279c-247.98616523 0-449.72298808 201.71883428-449.72298721 449.72388721 0 113.76926455 42.44762021 217.79633408 112.35452344 297.07848105 20.64100518 23.3715542-18.06425244 99.14158213-65.5916291 127.43819649 14.07275859 11.79999932 56.59682695 21.54129521 103.99109414 21.54129522 43.88034903 0 91.92307588-8.32655479 125.45324297-31.16297198 53.40938818 22.41730107 112.04962998 34.82888643 173.51575576 34.82888643 247.98616523 0 449.72388721-201.75660878 449.72388721-449.72298809 0-248.00505292-201.73862109-449.72478633-449.72388721-449.72478633z m254.19285791 567.04214531c0 21.57637148-17.51202685 39.10638604-39.10638603 39.10638604-21.59705742 0-39.10728516-17.53001455-39.10728516-39.10638604V502.22272871c0-37.73121855-30.70428222-68.4363999-68.43550078-68.4363999-37.7510045 0-68.4363999 30.70518223-68.43640078 68.43639991v127.09552938c0 21.57637148-17.51202685 39.10638604-39.10638516 39.10638604-21.59615742 0-39.10548691-17.53001455-39.10548691-39.10638604V502.22272871c0-37.73121855-30.70518223-68.4363999-68.43639991-68.4363999-37.7510045 0-68.4363999 30.70518223-68.4363999 68.43639991v127.09552938c0 21.57637148-17.50932862 39.10638604-39.10638604 39.10638604-21.59615742 0-39.10638604-17.53001455-39.10638602-39.10638604V502.22272871c0-81.00088154 65.66807724-146.64917198 146.64917196-146.64917197 42.49079121 0 80.75804589 18.0804419 107.54368507 46.96166074 26.78474004-28.88121885 65.0510956-46.96165987 107.54188681-46.96166074 80.9801956 0 146.65007109 65.64829043 146.65007109 146.64917197v127.09552939z" fill="#03b703"></path></svg>