<?xml version="1.0" encoding="utf-8"?>
<svg width="100%" height="100%"  xmlns="http://www.w3.org/2000/svg" xmlns:xlink="http://www.w3.org/1999/xlink" viewBox="0 0 96 64">
<path fill="#999" d="M93.457,6.139c-1.418-1.418-3.223-2.158-5.266-2.158H27.205c-3.87,0-6.96,1.497-9.186,4.528L0.465,31.992
	l17.57,23.327l0.029,0.037l0.029,0.036c1.099,1.41,2.297,2.5,3.66,3.251c1.612,0.889,3.445,1.376,5.451,1.376h61.01
	c4.168,0,7.32-3.544,7.32-7.8V11.462C95.535,9.423,94.875,7.556,93.457,6.139z"/>
<path fill="#FFFFFF" d="M91.972,7.722c-1.33-1.331-3.024-2.026-4.942-2.026h-59.25c-3.633,0-6.534,1.405-8.623,4.251L2.676,31.992
	L19.17,53.891l0.027,0.035l0.028,0.035c1.031,1.322,2.155,2.346,3.436,3.051c1.514,0.834,3.234,1.293,5.117,1.293h59.272
	c3.913,0,6.872-3.328,6.872-7.324V12.719C93.923,10.805,93.304,9.052,91.972,7.722z"/>
<path fill="#888" d="M72.023,19.888l-3.009-3.027c-0.211-0.209-0.492-0.326-0.786-0.326c-0.297,0-0.58,0.117-0.787,0.326
	L56.891,27.29L46.374,16.861c-0.207-0.209-0.49-0.326-0.784-0.326c-0.296,0-0.579,0.117-0.788,0.326l-3.009,3.027
	c-0.436,0.436-0.436,1.143,0,1.577L52.371,32L41.819,42.535c-0.21,0.208-0.326,0.492-0.326,0.788c0,0.3,0.116,0.577,0.326,0.788
	l3.014,3.024c0.217,0.222,0.501,0.329,0.786,0.329c0.287,0,0.57-0.107,0.787-0.329l10.485-10.559l10.521,10.559
	c0.216,0.222,0.502,0.329,0.787,0.329c0.287,0,0.566-0.107,0.785-0.329l3.012-3.024c0.213-0.205,0.332-0.49,0.329-0.788
	c0-0.296-0.114-0.58-0.329-0.788L61.429,32l10.595-10.535C72.461,21.03,72.461,20.323,72.023,19.888z"/>
</svg>
