<?xml version="1.0" encoding="utf-8"?>
<svg width="100%" height="100%" xmlns="http://www.w3.org/2000/svg" xmlns:xlink="http://www.w3.org/1999/xlink" viewBox="0 0 1024 1024" preserveAspectRatio="xMidYMid"><path d="M767.246847 379.14211001h227.75726c15.75482201 0 28.46940199-12.75244201 28.469402-28.46940201s-12.715603-28.46940199-28.469402-28.46940201h-227.75726c-15.715937 0-28.46837799 12.75244201-28.468379 28.46940201s12.75244201 28.46940199 28.468379 28.46940199z m227.758284 94.89834699H824.186673c-15.715937 0-28.46940199 12.75244201-28.469401 28.46940099 0 15.717983 12.753465 28.470425 28.469401 28.47042501H995.005131c15.75482201 0 28.46940199-12.75244201 28.469401-28.47042499 0-15.71696-12.715603-28.46940199-28.469401-28.46940101z m0 151.83817301H862.146217c-15.715937 0-28.46940199 12.751419-28.469402 28.46940199 0 15.715937 12.753465 28.46940199 28.469402 28.46940199H995.005131c15.75482201 0 28.46940199-12.753465 28.469401-28.46940199 0-15.717983-12.715603-28.46940199-28.469401-28.46940201zM774.921643 773.916245C567.145459 684.189687 529.370111 641.74396999 529.370111 618.70525399s-13.640672-31.954783 19.018146-53.54654398c57.419757-38.034245 95.45400201-104.111173 95.454002-179.27096601v-97.01147401c0-117.863385-93.49027801-213.410508-208.77697699-213.41050798-115.32456199 0-208.786187 95.547123-208.78618701 213.41050798v97.01147401c0 75.02880999 37.857213 141.013641 95.130637 179.06528199 32.695656 21.723767 19.053961 30.713512 19.05396201 53.75120501s-37.774325 65.48341001-245.55971901 155.21099c-90.895173 42.446741-134.582161 174.619016-46.115294 174.61901701h772.248256c88.485287 0 44.779879-132.172275-46.115294-174.61799301z" fill="#03b703"></path></svg>