<?xml version="1.0" standalone="no"?><!DOCTYPE svg PUBLIC "-//W3C//DTD SVG 1.1//EN" "http://www.w3.org/Graphics/SVG/1.1/DTD/svg11.dtd"><svg t="1552988153610" class="icon" style="" viewBox="0 0 1024 1024" version="1.1" xmlns="http://www.w3.org/2000/svg" p-id="26206" xmlns:xlink="http://www.w3.org/1999/xlink" width="32" height="32"><defs><style type="text/css"></style></defs><path d="M512 1024C229.66784 1024 0 794.33216 0 511.99488 0 229.66784 229.70368 0 512 0c282.30144 0 512 229.66784 512 512s-229.66784 512-512 512z" fill="#FFDF6B" p-id="26207"></path><path d="M513.2032 810.68032c-101.92384 0-196.45952-46.08-259.328-126.42816-12.43136-15.90784-9.6512-38.87616 6.25664-51.30752a36.51584 36.51584 0 0 1 51.34336 6.25664c48.896 62.49984 122.43456 98.33472 201.72288 98.33472 80.13312 0 154.14272-36.4544 203.04384-100.04992 12.32896-16.02048 35.25632-19.06176 51.27168-6.72768 16.02048 12.32896 19.06176 35.29216 6.72768 51.27168-62.85312 81.76128-158.01344 128.65024-261.03808 128.65024zM348.63104 515.6608c-30.3104 0-54.85056-24.54528-54.85056-54.86592V387.65568A54.81984 54.81984 0 0 1 348.63104 332.8a54.83008 54.83008 0 0 1 54.8608 54.85568v73.1392c0 30.2848-24.576 54.86592-54.8608 54.86592zM677.77536 515.6608c-30.2848 0-54.85568-24.54528-54.85568-54.86592V387.65568c0-30.32064 24.57088-54.85568 54.85568-54.85568 30.27968 0 54.85568 24.53504 54.85568 54.85568v73.1392c0 30.2848-24.576 54.86592-54.85568 54.86592z" fill="#975D00" p-id="26208"></path></svg>