<?xml version="1.0" encoding="utf-8"?>
<svg width="100%" height="100%" xmlns="http://www.w3.org/2000/svg" xmlns:xlink="http://www.w3.org/1999/xlink" viewBox="0 0 1024 1024" preserveAspectRatio="xMidYMid"><path d="M540.86634163 704.81854656c0-42.29145341 29.43113914-65.52839407 52.93210058-65.52839408-43.32856296-26.22969652-53.96683786-42.46140667-53.96683863-53.28781659 0-18.26561371-10.90308592-25.32617824 15.23254387-42.4614059 46.03990805-30.14652317 72.43955783-83.68096901 72.43955783-143.25863288V318.61626042c0-93.45287943-70.85780777-163.33128316-163.2364254-163.3312824-92.38019812 0-164.93200447 69.87840374-164.93200447 163.3312824v81.66524645c0 59.48438659 28.00037109 112.92397467 73.8885069 143.10765087 26.19254427 17.21032393 15.27127658 24.3467742 15.27127735 42.6123879 0 18.26482347-30.27853395 51.91396227-196.75355422 123.05318159-72.81661661 33.65072008-106.86099518 140.37812476-35.9850064 140.37812399h520.08345737v-77.12789277h-67.48720289c-37.26321195 0-67.48641188-25.4004835-67.4864119-67.48641189z m337.43364224-28.92207038h-106.05075418V569.84651226c0-15.98666139-12.95517126-28.92444188-28.92286062-28.92444188-15.96689912 0-28.92365164 12.93778127-28.92365164 28.92444188v106.04996392H608.35275351c-15.96689912 0-28.92286062 12.954381-28.92286062 28.92207038s12.95596227 28.92286062 28.92286062 28.92286063h106.04996392v106.05075415c0 15.96689912 12.95675251 28.92365164 28.92365165 28.92365165 15.96768938 0 28.92286062-12.95675251 28.92286061-28.92365165v-106.05075416h106.05075418c15.96689912 0 28.92207038-12.95517126 28.92207037-28.92286062s-12.954381-28.92207038-28.92207037-28.92207038z" fill="#888"></path></svg>