<?xml version="1.0" standalone="no"?><!DOCTYPE svg PUBLIC "-//W3C//DTD SVG 1.1//EN" "http://www.w3.org/Graphics/SVG/1.1/DTD/svg11.dtd"><svg t="1585885120613" class="icon" viewBox="0 0 1024 1024" version="1.1" xmlns="http://www.w3.org/2000/svg" p-id="1059" width="48" height="48" xmlns:xlink="http://www.w3.org/1999/xlink"><defs><style type="text/css"></style></defs><path d="M855.35 950.84H176.84a43.65 43.65 0 0 1-43.65-43.65V317.6h83.745l598.005-10.035h83.79V907.1a43.47 43.47 0 0 1-43.47 43.65z" fill="#D33409" p-id="1060"></path><path d="M648.665 491.255s-23.85 100.08-134.1 100.08S358.28 487.7 358.28 487.7c-87.75-15.975-136.98-44.775-198.99-81l-26.1-15.3V125.99a43.65 43.65 0 0 1 43.65-43.65h678.375a43.65 43.65 0 0 1 43.65 43.65v254.34l-19.395 12.375-12.6 8.01c-65.61 41.85-117.36 74.7-218.25 90.45z" fill="#B22B0B" p-id="1061"></path><path d="M648.665 471.41s-23.85 100.08-134.1 100.08-156.285-103.635-156.285-103.635c-87.75-15.975-136.98-44.775-198.99-81l-26.1-15.3V106.145a43.65 43.65 0 0 1 43.65-43.65h678.375a43.65 43.65 0 0 1 43.65 43.65v254.34l-19.395 12.375-12.6 8.01c-65.61 41.715-117.36 74.61-218.25 90.45z" fill="#FF5D24" p-id="1062"></path><path d="M303.83 456.2a206.64 206.64 0 1 0 413.325 0 206.64 206.64 0 1 0-413.325 0z" fill="#B22B0B" p-id="1063"></path><path d="M510.695 645.605a206.55 206.55 0 0 1-206.325-206.37A206.55 206.55 0 0 1 510.65 232.91a206.55 206.55 0 0 1 206.325 206.325 206.46 206.46 0 0 1-206.325 206.37z" fill="#EFCE73" p-id="1064"></path><path d="M625.355 507.635v-40.95H534.095V417.545h102.24v-40.905h-47.97l11.43-45.81h-42.165l-11.34 45.585H487.07L474.335 330.65h-42.39l12.735 45.81h-52.2v40.905h100.755v49.05H403.505v40.995h89.73v83.835h40.86V507.41h91.26z" fill="#FF5D24" p-id="1065"></path></svg>