<?xml version="1.0" standalone="no"?><!DOCTYPE svg PUBLIC "-//W3C//DTD SVG 1.1//EN" "http://www.w3.org/Graphics/SVG/1.1/DTD/svg11.dtd"><svg t="1552988138893" class="icon" style="" viewBox="0 0 1024 1024" version="1.1" xmlns="http://www.w3.org/2000/svg" p-id="26029" xmlns:xlink="http://www.w3.org/1999/xlink" width="32" height="32"><defs><style type="text/css"></style></defs><path d="M986.27781563 512.65778208c0 262.02668117-212.41348897 474.44016884-474.43849501 474.44017014S37.40249815 774.68446325 37.40249815 512.65778208c0-262.0233335 212.41348897-474.43682247 474.4384963-474.43682117 63.09019906 0 123.30657495 12.3137529 178.37283228 34.67165736 173.62608796 70.49652697 296.0639889 240.83537705 296.0639889 439.76516381z" fill="#FBDF6C" p-id="26030"></path><path d="M602.20991239 917.05835714c-262.02500734 0-474.43849502-212.41348897-474.438495-474.43849501 0-139.9888055 60.64485511-265.80097871 157.07943051-352.63996652C131.25113627 168.51375373 26.10136286 328.30632674 26.10136286 512.65778208c0 262.02668117 212.41348897 474.44016884 474.43849502 474.44017014 122.03285415 0 233.29347605-46.09162996 317.35906449-121.79350826-64.71205875 33.0849457-138.01880564 51.75391449-215.68900998 51.75391318z" fill="#FAC56B" p-id="26031"></path><path d="M237.02689012 479.56781487c-35.23236332 0-63.79651986 28.56080886-63.79651986 63.79484604h127.59471357c-0.00334767-35.23236332-28.56415654-63.79484603-63.79819371-63.79484604z m556.4688091 0c-35.23068947 0-63.79651986 28.56080886-63.79651987 63.79484604H857.29389292c0.00167385-35.23236332-28.56080886-63.79484603-63.7981937-63.79484604z" fill="#F8A880" p-id="26032"></path><path d="M310.26836122 365.80159473c0-24.8936305 20.25567917-45.1459633 45.14763712-45.14596327s45.14931097 20.2523315 45.14931097 45.14596327c0 10.66009158 8.63987918 19.29997076 19.29829563 19.29997076 10.66009158 0 19.29997076-8.64155301 19.29997075-19.29997076 0-46.17866437-37.57058682-83.74925119-83.75092502-83.74925119-46.1803382 0-83.74925119 37.57058682-83.74925119 83.74925119 0 10.66009158 8.64155301 19.29997076 19.29829691 19.29997076 10.66678564 0 19.30666481-8.63820533 19.30666483-19.29997076M675.11496018 282.05401739c-46.17866437 0-83.74925119 37.56891299-83.74925119 83.74925119 0 10.66009158 8.64155301 19.3016446 19.29997075 19.30164459 10.65674391 0 19.29997076-8.64155301 19.29997077-19.30164459 0-24.8936305 20.25400532-45.1459633 45.145962-45.14596329 24.8936305 0 45.14931097 20.2523315 45.14931096 45.14596329 0 10.66009158 8.64155301 19.3016446 19.29997076 19.30164459s19.29829693-8.64155301 19.29829563-19.30164459c0.00502151-46.1803382-37.56221763-83.74925119-83.74422968-83.74925119" fill="#7D164A" p-id="26033"></path><path d="M515.26380543 859.36933809c-137.14845779 0-248.33041318-111.18028156-248.3304132-248.33041317h496.65748c0.00167385 137.15013162-111.1819554 248.33041318-248.3270668 248.33041317z" fill="#FFFFFF" p-id="26034"></path><path d="M291.34833097 718.54198636a248.26011587 248.26011587 0 0 0 23.1144391 38.59994022h401.60207071a248.21659868 248.21659868 0 0 0 23.11611295-38.59994022H291.34833097z" fill="#E6E6E6" p-id="26035"></path><path d="M515.26380543 883.87131252c-144.14137101 0-261.40906861-117.26769761-261.40906863-261.40739478 0-16.89981783 13.74815308-30.64797092 30.64797222-30.64797092h461.51884641c16.89814399 0 30.64797092 13.74815308 30.64797094 30.64797092 0 144.13969716-117.26602378 261.40739478-261.40572094 261.40739478zM284.50270902 617.24182932a5.22710993 5.22710993 0 0 0-5.22208971 5.22208842c0 130.12039657 105.86111571 235.97983844 235.98318612 235.97983972 130.11872273 0 235.97983844-105.86111571 235.97983844-235.97983972 0-2.8788434-2.34157119-5.22208842-5.22208844-5.22208842h-461.51884641z" fill="#7D164A" p-id="26036"></path><path d="M515.26213158 1006.65400467c-66.84273799 0-131.69371884-13.09539252-192.75366246-38.92129901-58.96943519-24.94216922-111.92509933-60.64485511-157.39576907-106.11552614-45.47066973-45.47234357-81.17335564-98.42800771-106.11552483-157.39576775-25.82758161-61.06161747-38.92130029-125.9125983-38.92130029-192.75533631s13.09539252-131.69371884 38.92130029-192.75366377c24.94216922-58.96943519 60.64318127-111.92509933 106.11552483-157.39576775s98.42633387-81.17335564 157.39576907-106.11552615c61.05994493-25.82758161 125.9125983-38.92130029 192.75366246-38.921299s131.69371884 13.09539252 192.75366247 38.921299c58.96943519 24.94216922 111.92342549 60.64318127 157.39576908 106.11552615 45.47066973 45.47066973 81.17335564 98.42633387 106.11552483 157.39576775 25.82590777 61.05994493 38.92130029 125.9125983 38.92130029 192.75366377 0 66.84273799-13.09539252 131.69371884-38.92130029 192.75533631-24.94216922 58.96776137-60.64485511 111.92342549-106.11552483 157.39576775-45.47234357 45.47066973-98.42633387 81.17335564-157.39576908 106.11552614-61.05994493 25.82423394-125.91092446 38.92130029-192.75366247 38.92129901z m0-955.05980967c-253.57426149 0-459.87188047 206.29761897-459.87188045 459.87188046 0 253.57426149 206.29761897 459.87188047 459.87188045 459.87187916s459.87188047-206.29761897 459.87188047-459.87187916c0-253.57426149-206.29761897-459.87188047-459.87188047-459.87188046z" fill="#7D164A" p-id="26037"></path></svg>