<?xml version="1.0" encoding="utf-8"?>
<svg width="100%" height="100%" xmlns="http://www.w3.org/2000/svg" xmlns:xlink="http://www.w3.org/1999/xlink" viewBox="0 0 1024 1024" preserveAspectRatio="xMidYMid"><path d="M208.98819139 420.17867064C158.27101488 420.17867064 117.16686203 461.28282351 117.16686203 512s41.10494311 91.82132936 91.82132936 91.82132936c50.71717649 0 91.8221196-41.10415286 91.82211959-91.82132936s-41.10494311-91.82132936-91.82211959-91.82132936z m293.82920176 0c-50.71717649 0-91.82132936 41.10415286-91.82132935 91.82132936s41.10494311 91.82132936 91.82132935 91.82132936c50.71717649 0 91.8221196-41.10415286 91.8221196-91.82132936s-41.10494311-91.82132936-91.8221196-91.82132936z m312.19362522 0c-50.71717649 0-91.82132936 41.10415286-91.82132935 91.82132936s41.10415286 91.82132936 91.82132935 91.82132936 91.82132936-41.10415286 91.82132935-91.82132936-41.10415286-91.82132936-91.82132935-91.82132936z" fill="#888"></path></svg>