<?xml version="1.0" encoding="utf-8"?>
<svg width="100%" height="100%" xmlns="http://www.w3.org/2000/svg" xmlns:xlink="http://www.w3.org/1999/xlink" viewBox="0 0 1024 1024" preserveAspectRatio="xMidYMid"><path d="M511.99955 62.27611279c-247.98616523 0-449.72298808 201.73772197-449.72298721 449.72388721 0 113.76746542 42.44762021 217.79633408 112.35452344 297.07848105 20.64190518 23.39224013-18.06335332 99.16136894-65.59072998 127.45978242 14.07275859 11.79999932 56.59772695 21.53859698 103.99109414 21.5385961 43.88034903 0 91.92307588-8.34454248 125.45324297-31.18185879 53.40848906 22.43618789 112.04873086 34.82888643 173.51575664 34.82888643 247.98616523 0 449.72388721-201.73772197 449.72388721-449.72298809S759.98481612 62.27611279 511.99955 62.27611279z m0 860.34138838c-54.87899238 0-108.17235878-10.6937499-158.39160996-31.77455625l-19.59141709-8.22852158-17.56688995 11.9528956c-22.76176729 15.50458828-60.45521133 24.40315459-103.41818261 24.40315547-10.33039599 0-19.93498418-0.49646338-28.6806542-1.31760703 17.37621914-23.8878044 30.03603574-50.9648458 33.83595879-75.27176543 4.73528935-30.18803291-5.11753008-48.84588281-14.20676719-59.17447968C137.81544717 708.18038984 101.38294795 611.86649082 101.38294795 512c0-226.40889463 184.20860654-410.61750117 410.61660205-410.61750117S922.61705205 285.59110537 922.61705205 512c0 226.40799551-184.20950567 410.61750117-410.61750205 410.61750117z m107.54278594-567.04304443c-42.49079121 0-80.75804589 18.0804419-107.54278594 46.96165986-26.78474004-28.88121885-65.05199473-46.96165987-107.54278594-46.96165986-80.98109473 0-146.64827286 65.64829043-146.64827197 146.64917197v127.09552851c0 21.59705742 17.51022773 39.10638604 39.10548603 39.10638604 21.59615742 0 39.10638604-17.51022773 39.10638604-39.10638604V502.22272871c0-37.73121855 30.68539541-68.43550078 68.43550078-68.43550078 37.73211768 0 68.4363999 30.70428222 68.4363999 68.43550079v127.09552938c0 21.59705742 17.51022773 39.10638604 39.10638604 39.10638604 21.59705742 0 39.10638604-17.51022773 39.10638604-39.10638604V502.22272871c0-37.73121855 30.68449628-68.43550078 68.4363999-68.43550078 37.73121855 0 68.43550078 30.70428222 68.43550078 68.43550079v127.09552938c0 21.59705742 17.51112773 39.10638604 39.10638604 39.10638604 21.59705742 0 39.10638604-17.51022773 39.10638603-39.10638604V502.22272871c0.00179912-80.99998242-65.66627813-146.64827286-146.64737373-146.64827197z" fill="#7a7e83"></path></svg>