<?xml version="1.0" encoding="utf-8"?>
<svg width="100%" height="100%" xmlns="http://www.w3.org/2000/svg" xmlns:xlink="http://www.w3.org/1999/xlink" viewBox="0 0 1024 1024" preserveAspectRatio="xMidYMid"><path d="M863.53303304 468.05802529H555.94237022V160.46657222c0-24.28827844-19.67583003-43.94197471-43.94276573-43.94197471-24.26693571 0-43.94118448 19.65369627-43.94118447 43.94197471v307.59145307H160.46617672c-24.26693571 0-43.94197471 19.65369627-43.94197472 43.94197471 0 24.24480194 19.67503901 43.94197471 43.94197472 43.94197471h307.59224331v307.59066282c0 24.24559296 19.67503901 43.94276572 43.94118446 43.94276496 24.26693571 0 43.94276572-19.69717278 43.94276573-43.94276496V555.94197471h307.59066282c24.26614546 0 43.94197471-19.69717278 43.94197471-43.94197471 0-24.28827844-19.67583003-43.94197471-43.94197471-43.94197471z" fill="#aaa"></path></svg>