<?xml version="1.0" encoding="utf-8"?>
<svg width="100%" height="100%" xmlns="http://www.w3.org/2000/svg" xmlns:xlink="http://www.w3.org/1999/xlink" viewBox="0 0 1024 1024" preserveAspectRatio="xMidYMid"><path d="M605.788571 512L1004.405221 113.369024c25.907043-25.875321 25.907043-67.876923 0-93.78499-25.90602-25.907043-67.8759-25.907043-93.782943 0l-398.618696 398.62586L113.393071 19.584034c-25.907043-25.907043-67.941392-25.907043-93.800339 0-25.90602 25.908066-25.90602 67.909669 0 93.78499l398.623813 398.629953L19.591709 910.630976c-25.90602 25.907043-25.90602 67.908646 0 93.78192 25.858948 25.908066 67.893296 25.908066 93.800339 0l398.61051-398.624836 398.618697 398.624836c25.907043 25.908066 67.876923 25.908066 93.782943 0 25.907043-25.873274 25.907043-67.874877 0-93.78192L605.788571 512z" fill="#888"></path></svg>